<svg width="24" height="24" viewBox="0 0 24 24" fill="none" xmlns="http://www.w3.org/2000/svg">
<path d="M22.5608 10.7561L13.7076 5.45927C13.4885 5.326 13.2378 5.254 12.9814 5.25079C12.725 5.24757 12.4725 5.31326 12.2502 5.44099C12.009 5.58144 11.8093 5.78323 11.6713 6.02585C11.5333 6.26848 11.462 6.54329 11.4646 6.8224V10.5279L2.99335 5.45786C2.77433 5.3246 2.52353 5.2526 2.26718 5.24938C2.01082 5.24616 1.7583 5.31185 1.536 5.43958C1.2948 5.58004 1.09507 5.78182 0.957087 6.02445C0.819104 6.26707 0.747786 6.54189 0.750378 6.82099V17.1804C0.747703 17.4595 0.818981 17.7345 0.956968 17.9772C1.09496 18.2199 1.29473 18.4217 1.536 18.5622C1.7583 18.69 2.01082 18.7557 2.26718 18.7524C2.52353 18.7492 2.77433 18.6772 2.99335 18.544L11.4646 13.4716V17.1785C11.4616 17.458 11.5327 17.7333 11.6707 17.9764C11.8087 18.2194 12.0087 18.4216 12.2502 18.5622C12.4725 18.69 12.725 18.7557 12.9814 18.7524C13.2378 18.7492 13.4885 18.6772 13.7076 18.544L22.5608 13.2471C22.7713 13.1152 22.9448 12.9321 23.0651 12.7148C23.1854 12.4975 23.2485 12.2532 23.2485 12.0049C23.2485 11.7565 23.1854 11.5123 23.0651 11.295C22.9448 11.0777 22.7713 10.8945 22.5608 10.7627V10.7561Z" fill="#FBA94C"/>
</svg>
