<svg width="24" height="24" viewBox="0 0 24 24" fill="none" xmlns="http://www.w3.org/2000/svg">
<path d="M1.43863 10.7561L10.2919 5.45927C10.5109 5.326 10.7617 5.254 11.0181 5.25079C11.2744 5.24757 11.527 5.31326 11.7493 5.44099C11.9905 5.58144 12.1902 5.78323 12.3282 6.02585C12.4662 6.26848 12.5375 6.54329 12.5349 6.8224V10.5279L21.0061 5.45786C21.2251 5.3246 21.4759 5.2526 21.7323 5.24938C21.9887 5.24616 22.2412 5.31185 22.4635 5.43958C22.7047 5.58004 22.9044 5.78182 23.0424 6.02445C23.1804 6.26707 23.2517 6.54189 23.2491 6.82099V17.1804C23.2518 17.4596 23.1806 17.7345 23.0426 17.9772C22.9046 18.2199 22.7048 18.4218 22.4635 18.5622C22.2412 18.69 21.9887 18.7557 21.7323 18.7524C21.4759 18.7492 21.2251 18.6772 21.0061 18.544L12.5349 13.4716V17.1785C12.5379 17.458 12.4668 17.7333 12.3288 17.9764C12.1908 18.2195 11.9908 18.4216 11.7493 18.5622C11.527 18.69 11.2744 18.7557 11.0181 18.7524C10.7617 18.7492 10.5109 18.6772 10.2919 18.544L1.43863 13.2471C1.22816 13.1152 1.05464 12.9321 0.934361 12.7148C0.814079 12.4975 0.750977 12.2532 0.750977 12.0049C0.750977 11.7565 0.814079 11.5123 0.934361 11.295C1.05464 11.0777 1.22816 10.8945 1.43863 10.7627V10.7561Z" fill="#FBA94C"/>
</svg>
